<svg xmlns="http://www.w3.org/2000/svg" viewBox="0 0 1024 1024" role="img" aria-labelledby="title desc">
  <title id="title">ParaBreach Icon Source</title>
  <desc id="desc">Retro arcade icon source with a glowing horizon, parachute silhouette, and anti-air turret.</desc>
  <defs>
    <linearGradient id="bg" x1="0" y1="0" x2="0" y2="1">
      <stop offset="0%" stop-color="#0d1327" />
      <stop offset="55%" stop-color="#090b13" />
      <stop offset="100%" stop-color="#020204" />
    </linearGradient>
    <linearGradient id="sun" x1="0" y1="0" x2="0" y2="1">
      <stop offset="0%" stop-color="#ffd36b" />
      <stop offset="55%" stop-color="#ff8b47" />
      <stop offset="100%" stop-color="#ff4fb4" />
    </linearGradient>
  </defs>
  <rect width="1024" height="1024" fill="url(#bg)" />
  <circle cx="512" cy="328" r="182" fill="url(#sun)" />
  <rect x="0" y="390" width="1024" height="18" fill="#090b13" />
  <path d="M180 770 H844" stroke="#4ce7ff" stroke-width="6" opacity="0.55" />
  <path d="M244 770 L512 574 L780 770" stroke="#4ce7ff" stroke-width="5" opacity="0.25" fill="none" />
  <path d="M302 770 L512 622 L722 770" stroke="#4ce7ff" stroke-width="5" opacity="0.16" fill="none" />
  <g fill="none" stroke="#f4f7ff" stroke-width="20" stroke-linecap="round" stroke-linejoin="round">
    <path d="M306 742 H522 L618 658 H734" />
    <path d="M568 712 L776 498" />
  </g>
  <rect x="290" y="734" width="258" height="82" rx="8" fill="#f4f7ff" />
  <circle cx="772" cy="494" r="30" fill="#ffd36b" />
  <circle cx="772" cy="494" r="56" fill="none" stroke="#ff4fb4" stroke-width="12" opacity="0.7" />
  <g fill="none" stroke="#f4f7ff" stroke-width="14" stroke-linecap="round" stroke-linejoin="round">
    <path d="M308 220 C360 144 478 112 574 112 C664 112 772 142 814 220" />
    <path d="M308 220 C410 272 716 272 814 220" />
    <path d="M368 218 L516 390" />
    <path d="M512 218 L516 390" />
    <path d="M754 218 L516 390" />
  </g>
  <circle cx="516" cy="430" r="20" fill="#f4f7ff" />
  <rect x="452" y="444" width="128" height="132" rx="22" fill="#0d1327" stroke="#f4f7ff" stroke-width="12" />
</svg>
